Coordinates
version=1
nRows=6
nColumns=107
inDegrees=yes

Units are S.I. units (second, meters, Newtons, ...)
If the header above contains a line with 'inDegrees', this indicates whether rotational values are in degrees (yes) or radians (no).

endheader
time	sternoclavicular_r2	sternoclavicular_r3	unrotscap_r3	unrotscap_r2	acromioclavicular_r2	acromioclavicular_r3	acromioclavicular_r1	unrothum_r1	unrothum_r3	unrothum_r2	elv_angle	shoulder_elv	shoulder1_r2	shoulder_rot	elbow_flexion	pro_sup	deviation	flexion	proximal_distal_r1	proximal_distal_r3	cmc_flexion	cmc_abduction	mp_flexion	ip_flexion	mcp2_flexion	mcp2_abduction	pm2_flexion	md2_flexion	mcp3_flexion	mcp3_abduction	pm3_flexion	md3_flexion	mcp4_flexion	mcp4_abduction	pm4_flexion	md4_flexion	mcp5_flexion	mcp5_abduction	pm5_flexion	md5_flexion	bicpt_tx	bicpt_ty	bicpt_tz	bicpt2_tx	bicpt2_ty	bicpt2_tz	ptpt_tx	ptpt_ty	ptpt_tz	FCUpt_tx	FCUpt_ty	FCUpt_tz	EDCpt_tx	EDCpt_ty	EDCpt_tz	APLpt_tx	APLpt_ty	APLpt_tz	FPLpt_tx	FPLpt_ty	FPLpt_tz	FPLpt2_tx	FPLpt2_ty	FPLpt2_tz	PEC1pt2_tx	PEC1pt2_ty	PEC1pt2_tz	PEC1pt3_tx	PEC1pt3_ty	PEC1pt3_tz	PEC2pt2_tx	PEC2pt2_ty	PEC2pt2_tz	PEC2pt3_tx	PEC2pt3_ty	PEC2pt3_tz	PEC3pt2_tx	PEC3pt2_ty	PEC3pt2_tz	PEC3pt3_tx	PEC3pt3_ty	PEC3pt3_tz	DELT2pt2a_tx	DELT2pt2a_ty	DELT2pt2a_tz	DELT2pt2_tx	DELT2pt2_ty	DELT2pt2_tz	LAT1pt2_tx	LAT1pt2_ty	LAT1pt2_tz	LAT1pt3_tx	LAT1pt3_ty	LAT1pt3_tz	LAT2pt2_tx	LAT2pt2_ty	LAT2pt2_tz	LAT2pt3_tx	LAT2pt3_ty	LAT2pt3_tz	LAT3pt2_tx	LAT3pt2_ty	LAT3pt2_tz	LAT3pt3_tx	LAT3pt3_ty	LAT3pt3_tz
      1.70000000	     -0.35064781	      0.14851786	     -0.14851786	      0.35064781	     -0.07099905	      0.57378934	      0.25791436	     -0.25791436	     -0.57378934	      0.07099905	     91.19996834	     83.01898577	     -1.59173973	     19.45157241	     34.99546068	    -89.42821700	      0.43171911	      0.62937967	      0.43334917	      0.31468984	     25.54008221	    -22.38222154	     -7.56985197	      3.30021643	     -8.17211838	    -13.99765010	     22.40571125	    -15.18680516	      7.35765070	    -14.17132537	     15.04836018	     10.97103188	     15.53216280	    -14.30385298	    -16.56306790	     26.26380860	      2.64239511	    -14.45730953	    -30.34387750	      5.13826244	      0.00105754	     -0.03161101	     -0.00494607	     -0.00282918	     -0.01970669	     -0.00954297	      0.01415774	     -0.06062733	      0.00715392	     -0.00266531	     -0.18380917	      0.00684006	      0.01073136	     -0.00129963	     -0.00346389	     -0.00097562	     -0.00039025	     -0.00195124	     -0.00124880	     -0.00374639	     -0.00210734	     -0.00000088	     -0.00027617	     -0.00033141	      0.00272118	      0.00954719	      0.00664152	     -0.00890149	      0.02149271	     -0.02038579	      0.00272118	      0.00954719	      0.00664152	      0.00059958	      0.01992457	     -0.01046963	      0.00419871	      0.00530907	      0.01654710	      0.00000000	      0.00922979	      0.00000000	     -0.00779457	     -0.03602105	     -0.00761738	     -0.01939832	     -0.00155159	     -0.00562037	     -0.00096856	      0.01623484	     -0.00664152	      0.00267506	      0.02342982	     -0.01937111	     -0.00650316	      0.01406712	     -0.00594970	     -0.01355978	      0.02970237	     -0.03325374	     -0.02545918	      0.01572750	     -0.00797905	     -0.01688054	      0.03431454	     -0.04155565
      1.73333333	     -0.35009354	      0.14828310	     -0.14828310	      0.35009354	     -0.07088682	      0.57288235	      0.25750667	     -0.25750667	     -0.57288235	      0.07088682	     91.06413084	     82.88775794	     -1.58936891	     19.37982854	     35.36898776	    -89.53746483	      0.43216923	      0.62364787	      0.43364174	      0.31182393	     28.52083719	    -22.89304401	     -5.84773248	      3.88056831	     -7.51149268	    -14.06694633	     22.68976326	    -15.10742178	      4.51497654	    -14.27805927	     13.93379747	     10.64845312	     13.14947901	    -14.31971107	    -17.77076223	     25.93726778	      3.87441141	    -14.49175338	    -30.16664150	      5.17394873	      0.00106990	     -0.03165383	     -0.00495297	     -0.00286176	     -0.01980816	     -0.00953480	      0.01416581	     -0.06062211	      0.00716272	     -0.00267195	     -0.18380742	      0.00685149	      0.01074447	     -0.00129971	     -0.00347078	     -0.00096379	     -0.00038552	     -0.00192759	     -0.00123366	     -0.00370097	     -0.00208179	     -0.00000635	     -0.00026113	     -0.00031335	      0.00271688	      0.00953210	      0.00663103	     -0.00888742	      0.02145874	     -0.02035357	      0.00271688	      0.00953210	      0.00663103	      0.00059863	      0.01989308	     -0.01045308	      0.00419407	      0.00530068	      0.01653700	      0.00000000	      0.00920038	      0.00000000	     -0.00778225	     -0.03596411	     -0.00759302	     -0.01931916	     -0.00153978	     -0.00558046	     -0.00096702	      0.01620918	     -0.00663103	      0.00267083	      0.02339279	     -0.01934049	     -0.00649288	      0.01404488	     -0.00594029	     -0.01353835	      0.02965542	     -0.03320118	     -0.02541893	      0.01570264	     -0.00796644	     -0.01685386	      0.03426030	     -0.04148996
      1.76666667	     -0.29336402	      0.12425515	     -0.12425515	      0.29336402	     -0.05940025	      0.48005190	      0.21578002	     -0.21578002	     -0.48005190	      0.05940025	    109.48221757	     69.45653949	     -1.91082517	    -50.54270486	     31.31627592	    -89.29744878	      0.42803028	     -0.84006315	      0.43093875	     -0.42003158	      0.48754378	     20.63349437	    -15.83607732	      6.33187396	     18.02159495	    -14.07962123	     14.16988230	    -35.63767973	      2.53662741	    -14.34880648	     10.52182783	      8.76232590	    -18.55791613	    -12.93016137	      4.12566021	     22.83864602	    -52.79094116	     -2.61256794	     15.97888597	      5.04893163	      0.00093585	     -0.03118932	     -0.00487815	     -0.00279025	     -0.01870722	     -0.00955273	      0.01414807	     -0.06063358	      0.00714339	     -0.00265737	     -0.18381125	      0.00682640	      0.01071567	     -0.00129953	     -0.00345566	      0.00026851	      0.00010740	      0.00053701	      0.00034369	      0.00103107	      0.00057998	      0.00001306	     -0.00001206	     -0.00001447	      0.00227663	      0.00798751	      0.00555653	     -0.00744729	      0.01798154	     -0.01705545	      0.00227663	      0.00798751	      0.00555653	      0.00050163	      0.01666958	     -0.00875925	      0.00368565	      0.00444175	      0.01529150	      0.00000000	      0.00644475	      0.00000000	     -0.00652120	     -0.03013645	     -0.00530536	      0.02516233	     -0.00150247	     -0.01954121	     -0.00081033	      0.01358262	     -0.00555653	      0.00223805	      0.01960220	     -0.01620654	     -0.00544077	      0.01176903	     -0.00497772	     -0.01134458	      0.02485003	     -0.02782123	     -0.02130002	      0.01315817	     -0.00667555	     -0.01412284	      0.02870873	     -0.03476689
      1.80000000	     -0.29408162	      0.12455909	     -0.12455909	      0.29408162	     -0.05954555	      0.48122616	      0.21630785	     -0.21630785	     -0.48122616	      0.05954555	    109.60657593	     69.62643767	     -1.91299563	    -50.68299173	     30.89963394	    -89.17042333	      0.42812205	     -0.84364774	      0.43099899	     -0.42182387	      1.40192030	     20.26078372	    -15.49790022	      6.44446248	     18.45474924	    -14.07948289	     14.27698632	    -35.58784776	      1.65254563	    -14.32495466	     10.11103796	      8.65822409	    -19.15822224	    -12.53948474	      3.83981264	     22.76277533	    -52.50660135	     -2.71762998	     16.06553629	      5.07088549	      0.00092206	     -0.03114157	     -0.00487045	     -0.00275244	     -0.01859404	     -0.00956219	      0.01413869	     -0.06063965	      0.00713316	     -0.00264965	     -0.18381327	      0.00681313	      0.01070043	     -0.00129943	     -0.00344768	      0.00026712	      0.00010685	      0.00053425	      0.00034192	      0.00102575	      0.00057699	      0.00003054	     -0.00003401	     -0.00004081	      0.00228220	      0.00800705	      0.00557012	     -0.00746551	      0.01802553	     -0.01709717	      0.00228220	      0.00800705	      0.00557012	      0.00050286	      0.01671036	     -0.00878067	      0.00369250	      0.00445262	      0.01531001	      0.00000000	      0.00647646	      0.00000000	     -0.00653715	     -0.03021016	     -0.00533174	      0.02518584	     -0.00150775	     -0.01963384	     -0.00081231	      0.01361585	     -0.00557012	      0.00224352	      0.01965014	     -0.01624618	     -0.00545408	      0.01179782	     -0.00498990	     -0.01137233	      0.02491081	     -0.02788928	     -0.02135213	      0.01319035	     -0.00669188	     -0.01415739	      0.02877895	     -0.03485193
      1.83333333	     -0.29409748	      0.12456581	     -0.12456581	      0.29409748	     -0.05954876	      0.48125211	      0.21631951	     -0.21631951	     -0.48125211	      0.05954876	    109.38274166	     69.63019236	     -1.90908899	    -50.03150264	     30.91177771	    -89.09715474	      0.42603776	     -0.82470435	      0.42962751	     -0.41235217	      2.49244768	     18.31462249	    -15.52433369	      5.07207507	     17.91482353	    -13.88617629	     14.23557545	    -36.46614530	     -0.13414734	    -14.23260164	     10.72674047	      9.44376067	    -19.81976073	    -11.91749374	      0.96246548	     24.42474083	    -52.72203501	     -2.08470394	     16.22335180	      5.02908692	      0.00092247	     -0.03114296	     -0.00487068	     -0.00273067	     -0.01859734	     -0.00956763	      0.01413327	     -0.06064315	      0.00712725	     -0.00264519	     -0.18381443	      0.00680549	      0.01069163	     -0.00129937	     -0.00344308	      0.00027421	      0.00010968	      0.00054842	      0.00035099	      0.00105296	      0.00059229	      0.00004036	     -0.00005891	     -0.00007070	      0.00228232	      0.00800748	      0.00557042	     -0.00746591	      0.01802650	     -0.01709810	      0.00228232	      0.00800748	      0.00557042	      0.00050289	      0.01671126	     -0.00878115	      0.00369265	      0.00445286	      0.01531042	      0.00000000	      0.00647716	      0.00000000	     -0.00653751	     -0.03021179	     -0.00533233	      0.02507447	     -0.00148323	     -0.01920447	     -0.00081235	      0.01361658	     -0.00557042	      0.00224364	      0.01965120	     -0.01624706	     -0.00545437	      0.01179846	     -0.00499017	     -0.01137294	      0.02491216	     -0.02789078	     -0.02135328	      0.01319106	     -0.00669224	     -0.01415815	      0.02878050	     -0.03485381
      1.86666667	     -0.29447456	      0.12472552	     -0.12472552	      0.29447456	     -0.05962511	      0.48186914	      0.21659686	     -0.21659686	     -0.48186914	      0.05962511	    109.25729023	     69.71946843	     -1.90689945	    -49.68076731	     30.77760434	    -89.17036520	      0.42712816	     -0.81944189	      0.43034590	     -0.40972094	      2.62438926	     17.86585714	    -15.62657791	      5.29771801	     18.18258678	    -13.94807236	     13.94563791	    -36.38609012	      0.28348461	    -14.34947469	     10.52891521	      9.16650166	    -19.57609939	    -12.08483838	      0.88215809	     24.28245721	    -52.23982453	     -1.54969506	     16.30805104	      5.04038933	      0.00091803	     -0.03112758	     -0.00486820	     -0.00275243	     -0.01856089	     -0.00956219	      0.01413868	     -0.06063965	      0.00713315	     -0.00264964	     -0.18381327	      0.00681313	      0.01070042	     -0.00129943	     -0.00344768	      0.00027607	      0.00011043	      0.00055213	      0.00035337	      0.00106010	      0.00059631	      0.00004071	     -0.00006178	     -0.00007414	      0.00228525	      0.00801775	      0.00557756	     -0.00747548	      0.01804961	     -0.01712002	      0.00228525	      0.00801775	      0.00557756	      0.00050353	      0.01673269	     -0.00879241	      0.00369624	      0.00445857	      0.01532012	      0.00000000	      0.00649386	      0.00000000	     -0.00654589	     -0.03025053	     -0.00534622	      0.02501210	     -0.00147004	     -0.01897419	     -0.00081339	      0.01363404	     -0.00557756	      0.00224652	      0.01967640	     -0.01626789	     -0.00546136	      0.01181359	     -0.00499657	     -0.01138752	      0.02494410	     -0.02792654	     -0.02138066	      0.01320798	     -0.00670082	     -0.01417630	      0.02881740	     -0.03489850
